<mxfile host="app.diagrams.net" agent="Mozilla/5.0 (Windows NT 10.0; Win64; x64) AppleWebKit/537.36 (KHTML, like Gecko) Chrome/137.0.0.0 Safari/537.36" version="27.2.0">
  <diagram name="Страница — 1" id="iZjb8nnXi-BRnz3kemn3">
    <mxGraphModel dx="1733" dy="1117" grid="1" gridSize="10" guides="1" tooltips="1" connect="1" arrows="1" fold="1" page="1" pageScale="1" pageWidth="827" pageHeight="1169" math="0" shadow="0">
      <root>
        <mxCell id="0" />
        <mxCell id="1" parent="0" />
        <mxCell id="V3gYa0mTTONmMcY87rrX-5" value="" style="edgeStyle=none;curved=1;rounded=0;orthogonalLoop=1;jettySize=auto;html=1;fontSize=12;startSize=8;endSize=8;" edge="1" parent="1" source="V3gYa0mTTONmMcY87rrX-2" target="V3gYa0mTTONmMcY87rrX-3">
          <mxGeometry relative="1" as="geometry" />
        </mxCell>
        <mxCell id="V3gYa0mTTONmMcY87rrX-2" value="Start" style="ellipse;whiteSpace=wrap;html=1;" vertex="1" parent="1">
          <mxGeometry x="333" y="30" width="120" height="80" as="geometry" />
        </mxCell>
        <mxCell id="V3gYa0mTTONmMcY87rrX-8" value="" style="edgeStyle=none;curved=1;rounded=0;orthogonalLoop=1;jettySize=auto;html=1;fontSize=12;startSize=8;endSize=8;" edge="1" parent="1" source="V3gYa0mTTONmMcY87rrX-3" target="V3gYa0mTTONmMcY87rrX-7">
          <mxGeometry relative="1" as="geometry" />
        </mxCell>
        <mxCell id="V3gYa0mTTONmMcY87rrX-3" value="Display menu" style="rounded=0;whiteSpace=wrap;html=1;" vertex="1" parent="1">
          <mxGeometry x="333" y="160" width="120" height="60" as="geometry" />
        </mxCell>
        <mxCell id="V3gYa0mTTONmMcY87rrX-7" value="Menu options" style="rhombus;whiteSpace=wrap;html=1;" vertex="1" parent="1">
          <mxGeometry x="343" y="260" width="100" height="80" as="geometry" />
        </mxCell>
        <mxCell id="V3gYa0mTTONmMcY87rrX-24" value="" style="edgeStyle=none;curved=1;rounded=0;orthogonalLoop=1;jettySize=auto;html=1;fontSize=12;startSize=8;endSize=8;" edge="1" parent="1" source="V3gYa0mTTONmMcY87rrX-9" target="V3gYa0mTTONmMcY87rrX-23">
          <mxGeometry relative="1" as="geometry" />
        </mxCell>
        <mxCell id="V3gYa0mTTONmMcY87rrX-9" value="Add Product" style="rounded=0;whiteSpace=wrap;html=1;" vertex="1" parent="1">
          <mxGeometry x="173" y="380" width="80" height="60" as="geometry" />
        </mxCell>
        <mxCell id="V3gYa0mTTONmMcY87rrX-28" value="" style="edgeStyle=none;curved=1;rounded=0;orthogonalLoop=1;jettySize=auto;html=1;fontSize=12;startSize=8;endSize=8;" edge="1" parent="1" source="V3gYa0mTTONmMcY87rrX-10" target="V3gYa0mTTONmMcY87rrX-27">
          <mxGeometry relative="1" as="geometry" />
        </mxCell>
        <mxCell id="V3gYa0mTTONmMcY87rrX-10" value="View Inventory" style="rounded=0;whiteSpace=wrap;html=1;" vertex="1" parent="1">
          <mxGeometry x="283" y="380" width="90" height="60" as="geometry" />
        </mxCell>
        <mxCell id="V3gYa0mTTONmMcY87rrX-30" value="" style="edgeStyle=none;curved=1;rounded=0;orthogonalLoop=1;jettySize=auto;html=1;fontSize=12;startSize=8;endSize=8;" edge="1" parent="1" source="V3gYa0mTTONmMcY87rrX-11" target="V3gYa0mTTONmMcY87rrX-29">
          <mxGeometry relative="1" as="geometry" />
        </mxCell>
        <mxCell id="V3gYa0mTTONmMcY87rrX-11" value="Update Stock" style="rounded=0;whiteSpace=wrap;html=1;" vertex="1" parent="1">
          <mxGeometry x="413" y="380" width="90" height="60" as="geometry" />
        </mxCell>
        <mxCell id="V3gYa0mTTONmMcY87rrX-34" value="" style="edgeStyle=none;curved=1;rounded=0;orthogonalLoop=1;jettySize=auto;html=1;fontSize=12;startSize=8;endSize=8;" edge="1" parent="1" source="V3gYa0mTTONmMcY87rrX-12" target="V3gYa0mTTONmMcY87rrX-33">
          <mxGeometry relative="1" as="geometry" />
        </mxCell>
        <mxCell id="V3gYa0mTTONmMcY87rrX-12" value="Remove Product&amp;nbsp;" style="rounded=0;whiteSpace=wrap;html=1;" vertex="1" parent="1">
          <mxGeometry x="533" y="380" width="120" height="60" as="geometry" />
        </mxCell>
        <mxCell id="V3gYa0mTTONmMcY87rrX-14" value="" style="endArrow=none;html=1;rounded=0;fontSize=12;startSize=8;endSize=8;curved=1;entryX=0.5;entryY=1;entryDx=0;entryDy=0;" edge="1" parent="1" target="V3gYa0mTTONmMcY87rrX-7">
          <mxGeometry width="50" height="50" relative="1" as="geometry">
            <mxPoint x="393" y="360" as="sourcePoint" />
            <mxPoint x="443" y="390" as="targetPoint" />
          </mxGeometry>
        </mxCell>
        <mxCell id="V3gYa0mTTONmMcY87rrX-15" value="" style="endArrow=none;html=1;rounded=0;fontSize=12;startSize=8;endSize=8;curved=1;" edge="1" parent="1">
          <mxGeometry width="50" height="50" relative="1" as="geometry">
            <mxPoint x="213" y="360" as="sourcePoint" />
            <mxPoint x="593" y="360" as="targetPoint" />
            <Array as="points">
              <mxPoint x="393" y="360" />
            </Array>
          </mxGeometry>
        </mxCell>
        <mxCell id="V3gYa0mTTONmMcY87rrX-17" value="" style="endArrow=classic;html=1;rounded=0;fontSize=12;startSize=8;endSize=8;curved=1;entryX=0.5;entryY=0;entryDx=0;entryDy=0;" edge="1" parent="1" target="V3gYa0mTTONmMcY87rrX-9">
          <mxGeometry width="50" height="50" relative="1" as="geometry">
            <mxPoint x="213" y="360" as="sourcePoint" />
            <mxPoint x="443" y="390" as="targetPoint" />
          </mxGeometry>
        </mxCell>
        <mxCell id="V3gYa0mTTONmMcY87rrX-18" value="" style="endArrow=classic;html=1;rounded=0;fontSize=12;startSize=8;endSize=8;curved=1;entryX=0.5;entryY=0;entryDx=0;entryDy=0;" edge="1" parent="1" target="V3gYa0mTTONmMcY87rrX-10">
          <mxGeometry width="50" height="50" relative="1" as="geometry">
            <mxPoint x="328" y="360" as="sourcePoint" />
            <mxPoint x="443" y="390" as="targetPoint" />
          </mxGeometry>
        </mxCell>
        <mxCell id="V3gYa0mTTONmMcY87rrX-21" value="" style="endArrow=classic;html=1;rounded=0;fontSize=12;startSize=8;endSize=8;curved=1;entryX=0.5;entryY=0;entryDx=0;entryDy=0;" edge="1" parent="1" target="V3gYa0mTTONmMcY87rrX-11">
          <mxGeometry width="50" height="50" relative="1" as="geometry">
            <mxPoint x="458" y="360" as="sourcePoint" />
            <mxPoint x="423" y="390" as="targetPoint" />
          </mxGeometry>
        </mxCell>
        <mxCell id="V3gYa0mTTONmMcY87rrX-22" value="" style="endArrow=classic;html=1;rounded=0;fontSize=12;startSize=8;endSize=8;curved=1;entryX=0.5;entryY=0;entryDx=0;entryDy=0;" edge="1" parent="1" target="V3gYa0mTTONmMcY87rrX-12">
          <mxGeometry width="50" height="50" relative="1" as="geometry">
            <mxPoint x="593" y="360" as="sourcePoint" />
            <mxPoint x="423" y="390" as="targetPoint" />
          </mxGeometry>
        </mxCell>
        <mxCell id="V3gYa0mTTONmMcY87rrX-26" value="" style="edgeStyle=none;curved=1;rounded=0;orthogonalLoop=1;jettySize=auto;html=1;fontSize=12;startSize=8;endSize=8;" edge="1" parent="1" source="V3gYa0mTTONmMcY87rrX-23" target="V3gYa0mTTONmMcY87rrX-25">
          <mxGeometry relative="1" as="geometry" />
        </mxCell>
        <mxCell id="V3gYa0mTTONmMcY87rrX-23" value="Ask for name, price, stock" style="rounded=0;whiteSpace=wrap;html=1;" vertex="1" parent="1">
          <mxGeometry x="173" y="480" width="80" height="60" as="geometry" />
        </mxCell>
        <mxCell id="V3gYa0mTTONmMcY87rrX-25" value="Save to list" style="rounded=0;whiteSpace=wrap;html=1;" vertex="1" parent="1">
          <mxGeometry x="173" y="565" width="80" height="60" as="geometry" />
        </mxCell>
        <mxCell id="V3gYa0mTTONmMcY87rrX-27" value="Loop through product list and display" style="rounded=0;whiteSpace=wrap;html=1;" vertex="1" parent="1">
          <mxGeometry x="283" y="480" width="90" height="60" as="geometry" />
        </mxCell>
        <mxCell id="V3gYa0mTTONmMcY87rrX-32" value="" style="edgeStyle=none;curved=1;rounded=0;orthogonalLoop=1;jettySize=auto;html=1;fontSize=12;startSize=8;endSize=8;" edge="1" parent="1" source="V3gYa0mTTONmMcY87rrX-29" target="V3gYa0mTTONmMcY87rrX-31">
          <mxGeometry relative="1" as="geometry" />
        </mxCell>
        <mxCell id="V3gYa0mTTONmMcY87rrX-29" value="Ask for product name and quantity" style="rounded=0;whiteSpace=wrap;html=1;" vertex="1" parent="1">
          <mxGeometry x="413" y="480" width="90" height="60" as="geometry" />
        </mxCell>
        <mxCell id="V3gYa0mTTONmMcY87rrX-31" value="Modify" style="rounded=0;whiteSpace=wrap;html=1;" vertex="1" parent="1">
          <mxGeometry x="413" y="565" width="90" height="60" as="geometry" />
        </mxCell>
        <mxCell id="V3gYa0mTTONmMcY87rrX-43" value="" style="edgeStyle=none;curved=1;rounded=0;orthogonalLoop=1;jettySize=auto;html=1;fontSize=12;startSize=8;endSize=8;" edge="1" parent="1" source="V3gYa0mTTONmMcY87rrX-33" target="V3gYa0mTTONmMcY87rrX-35">
          <mxGeometry relative="1" as="geometry" />
        </mxCell>
        <mxCell id="V3gYa0mTTONmMcY87rrX-33" value="Ask for product name" style="rounded=0;whiteSpace=wrap;html=1;" vertex="1" parent="1">
          <mxGeometry x="533" y="480" width="120" height="60" as="geometry" />
        </mxCell>
        <mxCell id="V3gYa0mTTONmMcY87rrX-35" value="Remove from list" style="rounded=0;whiteSpace=wrap;html=1;" vertex="1" parent="1">
          <mxGeometry x="533" y="565" width="120" height="60" as="geometry" />
        </mxCell>
        <mxCell id="V3gYa0mTTONmMcY87rrX-47" value="" style="edgeStyle=none;curved=1;rounded=0;orthogonalLoop=1;jettySize=auto;html=1;fontSize=12;startSize=8;endSize=8;" edge="1" parent="1" source="V3gYa0mTTONmMcY87rrX-36" target="V3gYa0mTTONmMcY87rrX-46">
          <mxGeometry relative="1" as="geometry" />
        </mxCell>
        <mxCell id="V3gYa0mTTONmMcY87rrX-36" value="Execute Action for each" style="rounded=0;whiteSpace=wrap;html=1;" vertex="1" parent="1">
          <mxGeometry x="333" y="680" width="120" height="60" as="geometry" />
        </mxCell>
        <mxCell id="V3gYa0mTTONmMcY87rrX-37" value="" style="endArrow=none;html=1;rounded=0;fontSize=12;startSize=8;endSize=8;curved=1;entryX=0.5;entryY=1;entryDx=0;entryDy=0;" edge="1" parent="1" target="V3gYa0mTTONmMcY87rrX-27">
          <mxGeometry width="50" height="50" relative="1" as="geometry">
            <mxPoint x="328" y="650" as="sourcePoint" />
            <mxPoint x="423" y="490" as="targetPoint" />
          </mxGeometry>
        </mxCell>
        <mxCell id="V3gYa0mTTONmMcY87rrX-38" value="" style="endArrow=none;html=1;rounded=0;fontSize=12;startSize=8;endSize=8;curved=1;" edge="1" parent="1">
          <mxGeometry width="50" height="50" relative="1" as="geometry">
            <mxPoint x="213" y="650" as="sourcePoint" />
            <mxPoint x="593" y="650" as="targetPoint" />
          </mxGeometry>
        </mxCell>
        <mxCell id="V3gYa0mTTONmMcY87rrX-41" value="" style="endArrow=none;html=1;rounded=0;fontSize=12;startSize=8;endSize=8;curved=1;exitX=0.5;exitY=1;exitDx=0;exitDy=0;" edge="1" parent="1" source="V3gYa0mTTONmMcY87rrX-31">
          <mxGeometry width="50" height="50" relative="1" as="geometry">
            <mxPoint x="373" y="540" as="sourcePoint" />
            <mxPoint x="458" y="650" as="targetPoint" />
          </mxGeometry>
        </mxCell>
        <mxCell id="V3gYa0mTTONmMcY87rrX-42" value="" style="endArrow=none;html=1;rounded=0;fontSize=12;startSize=8;endSize=8;curved=1;entryX=0.5;entryY=1;entryDx=0;entryDy=0;" edge="1" parent="1" target="V3gYa0mTTONmMcY87rrX-35">
          <mxGeometry width="50" height="50" relative="1" as="geometry">
            <mxPoint x="593" y="650" as="sourcePoint" />
            <mxPoint x="423" y="490" as="targetPoint" />
          </mxGeometry>
        </mxCell>
        <mxCell id="V3gYa0mTTONmMcY87rrX-44" value="" style="endArrow=none;html=1;rounded=0;fontSize=12;startSize=8;endSize=8;curved=1;entryX=0.5;entryY=1;entryDx=0;entryDy=0;" edge="1" parent="1" target="V3gYa0mTTONmMcY87rrX-25">
          <mxGeometry width="50" height="50" relative="1" as="geometry">
            <mxPoint x="213" y="650" as="sourcePoint" />
            <mxPoint x="423" y="490" as="targetPoint" />
          </mxGeometry>
        </mxCell>
        <mxCell id="V3gYa0mTTONmMcY87rrX-45" value="" style="endArrow=classic;html=1;rounded=0;fontSize=12;startSize=8;endSize=8;curved=1;entryX=0.5;entryY=0;entryDx=0;entryDy=0;" edge="1" parent="1" target="V3gYa0mTTONmMcY87rrX-36">
          <mxGeometry width="50" height="50" relative="1" as="geometry">
            <mxPoint x="393" y="650" as="sourcePoint" />
            <mxPoint x="423" y="490" as="targetPoint" />
          </mxGeometry>
        </mxCell>
        <mxCell id="V3gYa0mTTONmMcY87rrX-50" value="No" style="edgeStyle=none;curved=1;rounded=0;orthogonalLoop=1;jettySize=auto;html=1;fontSize=12;startSize=8;endSize=8;" edge="1" parent="1" source="V3gYa0mTTONmMcY87rrX-46" target="V3gYa0mTTONmMcY87rrX-49">
          <mxGeometry x="-0.3333" y="17" relative="1" as="geometry">
            <mxPoint as="offset" />
          </mxGeometry>
        </mxCell>
        <mxCell id="V3gYa0mTTONmMcY87rrX-46" value="Do you want to continue?" style="rhombus;whiteSpace=wrap;html=1;spacingTop=6;spacingLeft=1;" vertex="1" parent="1">
          <mxGeometry x="333" y="780" width="120" height="80" as="geometry" />
        </mxCell>
        <mxCell id="V3gYa0mTTONmMcY87rrX-49" value="Exit" style="ellipse;whiteSpace=wrap;html=1;" vertex="1" parent="1">
          <mxGeometry x="333" y="890" width="120" height="80" as="geometry" />
        </mxCell>
        <mxCell id="V3gYa0mTTONmMcY87rrX-51" value="Yes" style="endArrow=none;html=1;rounded=0;fontSize=12;startSize=8;endSize=8;curved=1;" edge="1" parent="1">
          <mxGeometry x="-0.8727" y="10" width="50" height="50" relative="1" as="geometry">
            <mxPoint x="453" y="820" as="sourcePoint" />
            <mxPoint x="720" y="820" as="targetPoint" />
            <mxPoint as="offset" />
          </mxGeometry>
        </mxCell>
        <mxCell id="V3gYa0mTTONmMcY87rrX-52" value="" style="endArrow=none;html=1;rounded=0;fontSize=12;startSize=8;endSize=8;curved=1;" edge="1" parent="1">
          <mxGeometry width="50" height="50" relative="1" as="geometry">
            <mxPoint x="720" y="820" as="sourcePoint" />
            <mxPoint x="720" y="200" as="targetPoint" />
          </mxGeometry>
        </mxCell>
        <mxCell id="V3gYa0mTTONmMcY87rrX-53" value="" style="endArrow=classic;html=1;rounded=0;fontSize=12;startSize=8;endSize=8;curved=1;entryX=1.012;entryY=0.668;entryDx=0;entryDy=0;entryPerimeter=0;" edge="1" parent="1" target="V3gYa0mTTONmMcY87rrX-3">
          <mxGeometry width="50" height="50" relative="1" as="geometry">
            <mxPoint x="720" y="200" as="sourcePoint" />
            <mxPoint x="360" y="450" as="targetPoint" />
          </mxGeometry>
        </mxCell>
      </root>
    </mxGraphModel>
  </diagram>
</mxfile>
